<svg xmlns="http://www.w3.org/2000/svg" enable-background="new 0 0 100 100" viewBox="0 0 100 100"><path d="M85,5H21c-4.4,0-8,3.6-8,8v74c0,4.4,3.6,8,8,8h64c1.1,0,2-0.9,2-2v-6v-6V7C87,5.9,86.1,5,85,5z M83,79H27V9h56V79z M21,9h2
	v70h-2c-1.5,0-2.8,0.4-4,1.1V13C17,10.8,18.8,9,21,9z M83,91H21c-2.2,0-4-1.8-4-4s1.8-4,4-4h62v4V91z M42,45.3l11.8,9.3
	c0.4,0.3,0.8,0.4,1.2,0.4s0.9-0.1,1.2-0.4l11.8-9.3c5.5-4.5,7.7-10.5,5.9-16c-1.5-4.6-5.5-7.9-9.8-8.2c-0.2,0-0.5,0-0.7,0
	c-3.1,0-6.1,1.2-8.4,3.3c-2.4-2.3-5.8-3.5-9.1-3.3c-4.4,0.3-8.3,3.5-9.8,8.2C34.2,34.8,36.4,40.8,42,45.3z M39.8,30.4
	c1-3,3.6-5.3,6.3-5.4c0.2,0,0.3,0,0.5,0c2.7,0,5.2,1.3,6.8,3.5c0.4,0.5,1,0.8,1.6,0.8s1.3-0.3,1.6-0.8c1.7-2.3,4.5-3.7,7.3-3.5
	c2.7,0.2,5.3,2.4,6.3,5.4c1.3,4-0.4,8.3-4.6,11.7L55,50.5l-10.5-8.3C40.2,38.7,38.5,34.4,39.8,30.4z M71,65c0,1.1-0.9,2-2,2H41
	c-1.1,0-2-0.9-2-2s0.9-2,2-2h28C70.1,63,71,63.9,71,65z"/></svg>