<?xml version="1.0" encoding="utf-8"?>
<svg viewBox="0 0 32 32" width="32px" height="32px" xmlns="http://www.w3.org/2000/svg">
    <path style="line-height:normal;text-indent:0;text-align:start;text-decoration-line:none;text-decoration-style:solid;text-decoration-color:#000;text-transform:none;block-progression:tb;white-space:normal;isolation:auto;mix-blend-mode:normal;solid-color:#000;solid-opacity:1" d="M 1.504 13.756 C 1.228 13.756 1.004 13.98 1.004 14.256 L 1.004 24.439 C 1.004 24.716 1.228 24.939 1.504 24.939 L 4.238 24.939 L 6.975 24.939 C 7.251 24.939 7.475 24.716 7.475 24.439 L 7.475 23.703 L 16.814 26.867 C 16.827 26.871 16.84 26.874 16.854 26.877 C 17.941 27.153 19.196 26.989 20.145 26.352 L 29.816 21.096 C 29.819 21.096 29.822 21.096 29.824 21.096 L 30.061 20.961 C 30.868 20.504 31.214 19.51 30.854 18.658 C 30.547 17.933 29.944 17.6 29.473 17.531 L 29.473 17.527 C 29.001 17.458 28.615 17.592 28.615 17.592 C 28.599 17.598 28.582 17.605 28.566 17.613 L 23.234 20.086 C 23.241 20.018 23.256 19.954 23.256 19.885 C 23.256 18.761 22.325 17.848 21.197 17.848 L 16.758 17.848 C 16.739 17.814 16.717 17.766 16.699 17.734 C 16.62 17.591 16.534 17.453 16.441 17.318 C 16.256 17.049 16.045 16.799 15.813 16.57 C 14.881 15.658 13.589 15.096 12.17 15.096 L 7.475 15.096 L 7.475 14.256 C 7.475 13.98 7.251 13.756 6.975 13.756 L 4.238 13.756 L 1.504 13.756 Z M 2.004 14.756 L 4.238 14.756 L 6.475 14.756 L 6.475 23.939 L 4.238 23.939 L 2.004 23.939 L 2.004 14.756 Z M 7.475 16.096 L 12.17 16.096 C 13.327 16.096 14.362 16.551 15.111 17.285 C 15.299 17.469 15.469 17.669 15.617 17.885 C 15.691 17.993 15.761 18.104 15.824 18.219 C 15.903 18.36 15.956 18.447 15.998 18.545 L 16.127 18.848 L 16.566 18.848 L 21.197 18.848 C 21.796 18.848 22.256 19.306 22.256 19.885 C 22.256 20.319 21.997 20.682 21.615 20.838 L 21.609 20.84 C 21.484 20.89 21.345 20.92 21.197 20.92 L 14.242 20.92 L 14.242 21.92 L 21.197 21.92 C 21.406 21.92 21.604 21.878 21.795 21.82 C 21.854 21.816 21.913 21.802 21.967 21.777 L 28.945 18.541 C 28.954 18.541 29.119 18.487 29.328 18.518 C 29.543 18.549 29.749 18.608 29.934 19.045 C 30.099 19.435 29.95 19.872 29.568 20.088 L 29.334 20.219 L 19.627 25.496 C 19.613 25.504 19.599 25.512 19.586 25.521 C 18.927 25.965 17.902 26.111 17.102 25.908 L 17.1 25.908 L 7.475 22.648 L 7.475 16.096 Z" enable-background="accumulate" font-family="sans-serif" font-weight="400" overflow="visible" />
</svg>