<?xml version="1.0" encoding="utf-8"?>
<svg viewBox="82.684 81.486 331.036 313.061" width="331.036" height="313.061" xmlns="http://www.w3.org/2000/svg">
  <path style="line-height: normal; text-indent: 0px; text-align: start; text-decoration-line: none; text-decoration-style: solid; text-decoration-color: #004a79; text-transform: none; white-space: normal; isolation: auto; mix-blend-mode: normal;" d="M 96.01 247.996 C 93.11 247.996 90.756 250.351 90.756 253.251 L 90.756 360.266 C 90.756 363.177 93.11 365.521 96.01 365.521 L 124.743 365.521 L 153.506 365.521 C 156.407 365.521 158.761 363.177 158.761 360.266 L 158.761 352.532 L 256.906 385.783 C 257.043 385.825 257.18 385.856 257.327 385.888 C 268.75 388.788 281.939 387.065 291.913 380.371 L 393.547 325.134 C 393.579 325.134 393.61 325.134 393.631 325.134 L 396.122 323.715 C 404.603 318.913 408.239 308.466 404.456 299.513 C 401.23 291.893 394.892 288.394 389.943 287.669 L 389.943 287.627 C 384.982 286.902 380.926 288.31 380.926 288.31 C 380.758 288.373 380.579 288.446 380.411 288.53 L 324.376 314.52 C 324.449 313.805 324.607 313.133 324.607 312.407 C 324.607 300.595 314.823 291 302.968 291 L 256.318 291 C 256.118 290.643 255.887 290.138 255.698 289.802 C 254.868 288.299 253.964 286.849 252.987 285.43 C 251.042 282.603 248.825 279.976 246.387 277.569 C 236.592 267.985 223.014 262.079 208.102 262.079 L 158.761 262.079 L 158.761 253.251 C 158.761 250.351 156.407 247.996 153.506 247.996 L 124.743 247.996 L 96.01 247.996 Z M 101.265 258.506 L 124.743 258.506 L 148.252 258.506 L 148.252 355.012 L 124.743 355.012 L 101.265 355.012 L 101.265 258.506 Z M 158.761 272.588 L 208.102 272.588 C 220.261 272.588 231.138 277.37 239.009 285.083 C 240.985 287.017 242.772 289.119 244.327 291.389 C 245.105 292.524 245.84 293.691 246.502 294.899 C 247.333 296.381 247.89 297.295 248.331 298.325 L 249.687 301.509 L 254.3 301.509 L 302.968 301.509 C 309.263 301.509 314.098 306.323 314.098 312.407 C 314.098 316.968 311.376 320.783 307.361 322.423 L 307.298 322.444 C 305.985 322.969 304.524 323.284 302.968 323.284 L 229.877 323.284 L 229.877 333.794 L 302.968 333.794 C 305.165 333.794 307.246 333.352 309.253 332.743 C 309.873 332.701 310.493 332.554 311.06 332.291 L 384.394 298.283 C 384.488 298.283 386.222 297.716 388.419 298.041 C 390.678 298.367 392.843 298.987 394.787 303.58 C 396.521 307.678 394.956 312.271 390.941 314.541 L 388.482 315.917 L 286.469 371.375 C 286.322 371.459 286.175 371.543 286.038 371.637 C 279.112 376.303 268.34 377.838 259.933 375.704 L 259.912 375.704 L 158.761 341.444 L 158.761 272.588 Z" enable-background="accumulate" font-family="sans-serif" font-weight="400" overflow="visible" fill="#004a79" />
  <rect width="256" height="256" fill="none" x="152.108" y="10.556" />
  <path fill="none" stroke="#004a79" stroke-linecap="round" stroke-linejoin="round" stroke-width="10" d="M 261.276 232.699 L 261.276 209.878 C 261.276 204.074 266.008 199.359 271.871 199.32 L 293.346 199.32 C 299.237 199.32 304.012 204.047 304.012 209.878 L 304.012 209.878 L 304.012 232.769 C 304.011 237.697 307.984 241.725 312.96 241.84 L 327.276 241.84 C 341.548 241.84 353.118 230.385 353.118 216.257 L 353.118 216.257 L 353.118 151.341 C 353.042 145.783 350.406 140.563 345.96 137.168 L 296.997 98.12 C 288.419 91.321 276.224 91.321 267.648 98.12 L 218.898 137.239 C 214.435 140.62 211.795 145.849 211.739 151.412 L 211.739 216.257 C 211.739 230.385 223.31 241.84 237.582 241.84 L 251.898 241.84 C 256.998 241.84 261.133 237.747 261.133 232.699 L 261.133 232.699" style="" />
  <path fill="#004a79" d="M 288.13 156.756 C 288.13 155.579 287.8 154.646 287.139 153.957 C 286.494 153.254 285.388 152.608 283.824 152.019 C 282.259 151.431 280.91 150.849 279.776 150.275 C 278.642 149.687 277.666 149.019 276.847 148.273 C 276.044 147.512 275.412 146.622 274.953 145.603 C 274.508 144.584 274.285 143.371 274.285 141.964 C 274.285 139.538 275.06 137.55 276.611 136 C 278.161 134.45 280.221 133.545 282.79 133.287 L 282.79 130.402 C 282.79 129.45 283.561 128.679 284.513 128.679 L 284.513 128.679 C 285.464 128.679 286.235 129.45 286.235 130.402 L 286.235 133.351 C 288.776 133.71 290.764 134.773 292.199 136.538 C 293.165 137.716 293.806 139.131 294.122 140.784 C 294.391 142.191 293.191 143.364 291.758 143.364 L 290.724 143.364 C 289.291 143.364 288.232 142.162 287.767 140.807 C 287.592 140.297 287.354 139.865 287.053 139.51 C 286.35 138.648 285.403 138.218 284.211 138.218 C 283.034 138.218 282.123 138.555 281.477 139.23 C 280.831 139.89 280.508 140.809 280.508 141.986 C 280.508 143.077 280.824 143.952 281.455 144.613 C 282.087 145.273 283.257 145.947 284.965 146.636 C 286.687 147.326 288.101 147.978 289.207 148.596 C 290.312 149.199 291.245 149.888 292.006 150.663 C 292.766 151.424 293.348 152.299 293.75 153.29 C 294.152 154.266 294.352 155.407 294.352 156.713 C 294.352 159.153 293.592 161.134 292.07 162.656 C 290.549 164.177 288.453 165.075 285.783 165.347 L 285.783 167.92 C 285.783 168.866 285.017 169.632 284.071 169.632 L 284.071 169.632 C 283.126 169.632 282.359 168.866 282.359 167.92 L 282.359 165.369 C 279.417 165.053 277.134 164.012 275.512 162.247 C 274.405 161.021 273.679 159.519 273.335 157.742 C 273.062 156.336 274.262 155.163 275.695 155.163 L 276.73 155.163 C 278.162 155.163 279.226 156.368 279.72 157.713 C 279.917 158.248 280.186 158.711 280.529 159.103 C 281.348 160.007 282.517 160.459 284.039 160.459 C 285.302 160.459 286.3 160.13 287.032 159.469 C 287.764 158.794 288.13 157.89 288.13 156.756 Z" style="" />
</svg>