<?xml version="1.0" encoding="utf-8"?>
<svg viewBox="63.511 117.436 355.602 222.588" width="355.602" height="222.588" xmlns="http://www.w3.org/2000/svg">
  <g style="line-height: 125%;" font-family="sans-serif" font-size="35.481" font-weight="400" letter-spacing="0" transform="matrix(5.711054, 0, 0, 5.711054, 70.214227, -5735.342371)" word-spacing="0">
    <path style="text-indent:0;text-align:start;line-height:125%;text-transform:none;block-progression:tb;marker:none;-inkscape-font-specification:Sans" d="M 3.96875 5.5 A 0.50004998 0.50004998 0 0 0 3.65625 5.84375 L 2.3125 10.84375 A 0.5043684 0.5043684 0 0 0 2.28125 11 L 0.5 11 A 0.50004998 0.50004998 0 0 0 0 11.5 L 0 18.5 L 0 25.5 A 0.50004998 0.50004998 0 0 0 0.5 26 L 12.5 26 L 20.5 26 A 0.50004998 0.50004998 0 0 0 20.9375 25.75 L 23.09375 21.96875 C 23.967345 22.067142 24.888951 21.841508 25.625 21.28125 C 26.370174 20.714133 26.806157 19.879795 26.9375 19 L 28.5 19 C 29.163236 19 29.812276 19.24975 30.28125 19.71875 C 30.750223 20.18765 30.999995 20.8368 31 21.5 A 0.50004998 0.50004998 0 1 0 32 21.5 C 31.999994 20.572 31.624986 19.68755 30.96875 19.03125 C 30.312513 18.37505 29.428069 18 28.5 18 L 26.9375 18 C 26.894211 17.70198 26.842265 17.411545 26.71875 17.125 C 26.303778 16.162304 25.484901 15.452583 24.53125 15.15625 L 23.9375 11.09375 A 0.50004998 0.50004998 0 0 0 23.5625 10.6875 L 15.84375 8.625 L 4.25 5.5 A 0.50004998 0.50004998 0 0 0 3.96875 5.5 z M 4.5 6.59375 L 15.59375 9.5625 L 23 11.5625 L 23.5 15 C 23.358584 14.999119 23.236675 15.014519 23.09375 15.03125 L 20.9375 11.25 A 0.50004998 0.50004998 0 0 0 20.5 11 L 12.5 11 L 3.3125 11 L 4.5 6.59375 z M 1 12 L 12.5 12 L 20.1875 12 L 23.90625 18.5 L 22.59375 20.8125 C 22.358674 20.721351 22.142522 20.602353 21.9375 20.4375 C 21.736293 20.275717 21.575583 20.080475 21.4375 19.875 C 21.780955 19.515459 21.999983 19.032278 22 18.5 C 22.000024 17.804958 21.637524 17.201583 21.09375 16.84375 A 0.50028708 0.50028708 0 0 0 21 16.78125 C 20.706038 16.610195 20.362369 16.5 20 16.5 C 18.903288 16.5 17.999961 17.4033 18 18.5 C 18.000034 19.5967 18.903339 20.5 20 20.5 C 20.205624 20.5 20.406624 20.464975 20.59375 20.40625 C 20.78964 20.704262 21.02325 20.986149 21.3125 21.21875 C 21.550857 21.410441 21.792654 21.567255 22.0625 21.6875 L 20.1875 25 L 12.5 25 L 1 25 L 1 18.5 L 1 12 z M 4.5 15.25 C 3.5314318 15.25 3.03125 15.82995 3.03125 16.84375 C 3.03125 18.65415 4.96875 18.91525 4.96875 20.21875 C 4.96875 20.67135 4.7855714 20.8125 4.46875 20.8125 C 4.1519286 20.8125 3.9375 20.67135 3.9375 20.21875 L 3.9375 19.75 L 3 19.75 L 3 20.15625 C 3 21.17005 3.5223798 21.75 4.5 21.75 C 5.4776202 21.75 5.96875 21.17005 5.96875 20.15625 C 5.96875 18.34575 4.03125 18.08475 4.03125 16.78125 C 4.03125 16.32865 4.2144286 16.15625 4.53125 16.15625 C 4.8480713 16.15625 5.03125 16.32865 5.03125 16.78125 L 5.03125 17.0625 L 5.96875 17.0625 L 5.96875 16.84375 C 5.96875 15.82995 5.4685681 15.25 4.5 15.25 z M 7.28125 15.34375 L 6.28125 21.65625 L 7.1875 21.65625 L 7.34375 20.53125 L 8.5625 20.53125 L 8.75 21.65625 L 9.75 21.65625 L 8.75 15.34375 L 7.28125 15.34375 z M 10.21875 15.34375 L 10.21875 21.65625 L 12.84375 21.65625 L 12.84375 20.75 L 11.21875 20.75 L 11.21875 15.34375 L 10.21875 15.34375 z M 13.28125 15.34375 L 13.28125 21.65625 L 16 21.65625 L 16 20.75 L 14.28125 20.75 L 14.28125 18.90625 L 15.65625 18.90625 L 15.65625 18 L 14.28125 18 L 14.28125 16.25 L 16 16.25 L 16 15.34375 L 13.28125 15.34375 z M 24.6875 16.3125 C 25.164389 16.572962 25.553383 16.9714 25.78125 17.5 C 26.236953 18.5572 25.915894 19.8029 25 20.5 C 24.594603 20.808614 24.136752 20.970382 23.65625 21 L 24.9375 18.75 A 0.50004998 0.50004998 0 0 0 24.9375 18.6875 A 0.50004998 0.50004998 0 0 0 25 18.46875 A 0.50004998 0.50004998 0 0 0 25 18.40625 A 0.50004998 0.50004998 0 0 0 24.96875 18.3125 A 0.50004998 0.50004998 0 0 0 24.96875 18.28125 L 24.6875 16.3125 z M 7.96875 16.46875 L 8.4375 19.65625 L 7.46875 19.65625 L 7.96875 16.46875 z M 20 17.5 C 20.057262 17.5 20.101808 17.52228 20.15625 17.53125 C 19.985386 18.118319 19.958497 18.734436 20.09375 19.3125 C 20.106189 19.365654 20.110105 19.416227 20.125 19.46875 C 20.080451 19.474697 20.046353 19.5 20 19.5 C 19.443768 19.5 19.000017 19.0563 19 18.5 C 18.99998 17.9438 19.44374 17.5 20 17.5 z " color="#000" enable-background="accumulate" font-size="35.481" overflow="visible" transform="translate(0 1020.362)" fill="#004a79" />
  </g>
  <path fill="none" stroke="#004a79" stroke-linecap="round" stroke-linejoin="round" stroke-width="8" d="M 304.338 316.224 L 304.338 290.556 C 304.338 284.028 309.661 278.723 316.255 278.679 L 340.411 278.679 C 347.036 278.679 352.408 283.997 352.408 290.556 L 352.408 290.556 L 352.408 316.304 C 352.406 321.847 356.875 326.377 362.473 326.507 L 378.576 326.507 C 394.63 326.507 407.644 313.623 407.644 297.731 L 407.644 297.731 L 407.644 224.714 C 407.558 218.461 404.593 212.59 399.592 208.771 L 344.517 164.849 C 334.869 157.201 321.153 157.201 311.504 164.849 L 256.671 208.851 C 251.652 212.654 248.681 218.535 248.62 224.793 L 248.62 297.731 C 248.62 313.623 261.633 326.507 277.687 326.507 L 293.79 326.507 C 299.527 326.507 304.177 321.903 304.177 316.224 L 304.177 316.224" style="" />
</svg>