<svg xmlns="http://www.w3.org/2000/svg" viewBox="0 0 24 24">
    <g data-name="Hold Money Bag">
        <g data-name="&lt;Group&gt;">
            <g data-name="&lt;Group&gt;">
                <path fill="none" stroke="#004A79" stroke-linecap="round" stroke-linejoin="round" d="M16.33,5.71c.08-.92,1.44-3.22,1.44-4.12A1,1,0,0,0,16.68.5c-1,0-.56.73-1.09.73S15.15.5,14.14.5,12.68,2,12.68,2s-1.45-.11-1.45.73,1.34,2.17,1.43,3" data-name="&lt;Path&gt;" />
                <path fill="none" stroke="#004A79" stroke-linecap="round" stroke-linejoin="round" d="M21.24,18a1.1,1.1,0,0,0,.26-.7c0-1.82-1.65-4.37-1.65-4.37,0-5-1.17-7.44-5.35-7.44S9.15,7.94,9.15,12.94A14.94,14.94,0,0,0,8.07,15" data-name="&lt;Path&gt;" />
            </g>
            <g data-name="&lt;Group&gt;">
                <path fill="none" stroke="#004A79" stroke-linecap="round" stroke-linejoin="round" d="M15.5,9.5h-1a1,1,0,0,0-1,1h0a1,1,0,0,0,1,1h0a1,1,0,0,1,1,1h0a1,1,0,0,1-1,1h-1" data-name="&lt;Path&gt;" />
                <line x1="14.5" x2="14.5" y1="9.5" y2="9" fill="none" stroke="#004A79" stroke-linecap="round" stroke-linejoin="round" data-name="&lt;Path&gt;" />
                <line x1="14.5" x2="14.5" y1="13.5" y2="14" fill="none" stroke="#004A79" stroke-linecap="round" stroke-linejoin="round" data-name="&lt;Path&gt;" />
            </g>
            <g data-name="&lt;Group&gt;">
                <path fill="none" stroke="#004A79" stroke-linecap="round" stroke-linejoin="round" d="M.5 13.5l4.07.81a1 1 0 01.79 1.12l-.74 5.2a1 1 0 01-1 .86H.5zM5.5 15.5a10.15 10.15 0 013-.5c1.58 0 2.49 1.09 4.5 1.5s3.5.94 3.5 2-1.62 1.59-7 0" data-name="&lt;Path&gt;" />
                <path fill="none" stroke="#004A79" stroke-linecap="round" stroke-linejoin="round" d="M16.5,19A25.15,25.15,0,0,1,21,18c1.25,0,2.5.5,2.5,1.5-1.71.75-7.67,4-10,4s-8.5-3-8.5-3" data-name="&lt;Path&gt;" />
            </g>
        </g>
    </g>
</svg>