<svg xmlns="http://www.w3.org/2000/svg" data-name="Layer 1" viewBox="0 0 512 512">
    <polygon fill="#fff" points="443.38 154.02 443.38 504.5 68.38 504.5 68.38 154.02 256 49.02 443.38 154.02" />
    <path fill="#fff" d="M430.53,144.69l-72.83-15V22A14.45,14.45,0,0,1,372.15,7.5h43.92A14.46,14.46,0,0,1,430.53,22Z" />
    <path fill="#fff" d="M436.62,18.26l.27,35.41A16.21,16.21,0,0,1,420.69,70h0a16.2,16.2,0,0,1-16.2-16.2V44.37a13.61,13.61,0,0,0-13.61-13.61h0a13.6,13.6,0,0,0-13.6,13.61v2.26a12.59,12.59,0,0,1-12.59,12.58h0a12.58,12.58,0,0,1-12.58-12.46l-.25-28.31A10.83,10.83,0,0,1,362.7,7.5h63.08A10.84,10.84,0,0,1,436.62,18.26Z" />
    <path fill="#AED6F1" d="M375.88 30.76a13.6 13.6 0 0 0-13.6 13.61v2.26a12.56 12.56 0 0 1-5.09 10.09 12.53 12.53 0 0 0 7.5 2.49h0a12.59 12.59 0 0 0 12.59-12.58V44.37A13.59 13.59 0 0 1 383.38 33 13.58 13.58 0 0 0 375.88 30.76zM436.62 18.26A10.84 10.84 0 0 0 425.78 7.5h-15a10.84 10.84 0 0 1 10.84 10.76l.27 35.41a16.19 16.19 0 0 1-8.7 14.47 16 16 0 0 0 7.5 1.85h0a16.21 16.21 0 0 0 16.2-16.32zM256 49l-15 8.4L413.38 154v23.17L255.88 82.13 144.3 134.48 68.38 190.36v65.71L251.57 139a10 10 0 0 1 8.62 0l100.58 65.41a115.69 115.69 0 0 1 52.61 97V504.5h30V154z" />
    <path fill="#fff" d="M480.7,187.83V234a10,10,0,0,1-15.45,8.38L260.19,109a10,10,0,0,0-8.62,0L46.45,240.08a10,10,0,0,1-15.39-8.42V187.83l98.21-72.29,15-11.06,15.76-7.39,95.82-45Z" />
    <path fill="#AED6F1" d="M480.7,187.83v36.3a16.23,16.23,0,0,1-16.32-6A49.43,49.43,0,0,0,448.46,205c-.44-.23-.86-.48-1.28-.73-12.39-7.44-18.76-26.66-32.16-34.71-12.91-7.76-32.85-4.35-45.74-12.1-13.42-8.07-19.78-27.28-32.14-34.71-14.33-8.61-34.38-5.27-45.74-12.1-23.53-14.14-15.22-41.17-37.21-35.45S239.75,99,220.26,110.67s-26.3.4-45.79,12.12-12.7,23-32.2,34.74-26.29.4-45.79,12.11-12.7,23-32.19,34.74c-.77.46-1.53.88-2.27,1.27A53.51,53.51,0,0,0,45.9,218.78a16.17,16.17,0,0,1-12.43,5.72,14.7,14.7,0,0,1-2.41-.2V187.83l98.21-72.29,30.79-18.45,95.82-45Z" />
    <path fill="#fff" d="M222.13,289h67.51a30,30,0,0,1,30,30V504.5a0,0,0,0,1,0,0H192.13a0,0,0,0,1,0,0V319A30,30,0,0,1,222.13,289Z" />
    <path fill="#AED6F1" d="M289.64,289H222.13a30,30,0,0,0-26,15h63.49a30,30,0,0,1,30,30V504.5h30V319A30,30,0,0,0,289.64,289Z" />
    <circle cx="255.88" cy="203.96" r="27.5" fill="#fff" />
    <path fill="#AED6F1" d="M268.45 179.5A27.5 27.5 0 0 1 231 215.65a27.5 27.5 0 1 0 37.46-36.15zM148.48 400.76A134 134 0 0 1 91.56 414.3a126.55 126.55 0 0 1-23.18-2v-102l9.56-21.59c7-15.93 18.59-15.93 25.65 0L149.9 393.3C151.07 396 150.33 399.88 148.48 400.76z" />
    <polyline fill="#fff" points="51.97 454.45 51.97 402.5 85.8 402.5 85.8 454.45" />
    <path fill="#fff" d="M9.75 386.61L56.06 282c7-15.93 18.59-15.93 25.65 0L128 386.61c1.17 2.67.43 6.58-1.42 7.46a133.89 133.89 0 0 1-56.92 13.54 133.66 133.66 0 0 1-58.53-13.54C9.31 393.19 8.58 389.27 9.75 386.61zM504.5 493.52v1a10 10 0 0 1-10 10H17.5a10 10 0 0 1-10-10V494c0-30.46 27.63-53.06 57.62-47.77a84.76 84.76 0 0 0 16 1.31c31.42-.42 40-18.2 74-18.81 38.36-.69 41.69 21.76 82.14 25.08 43.67 3.59 48.89-21.8 97.83-22 42.1-.12 51.48 18.64 89.68 17a117.12 117.12 0 0 0 20.09-2.68C475.42 439.39 504.5 462.22 504.5 493.52zM260.45 27.41a10.77 10.77 0 0 0-9.18 0L31 159.48A28.13 28.13 0 0 0 17.29 183.6v9.17c0 9 7.16 16.69 16.18 16.73a16.17 16.17 0 0 0 12.43-5.72A53.51 53.51 0 0 1 62 190.65c.74-.39 1.5-.81 2.27-1.27 19.49-11.71 12.7-23 32.19-34.74s26.29-.4 45.79-12.11 12.7-23 32.2-34.74 26.29-.41 45.79-12.12 11.92-29.74 33.93-35.47 13.68 21.31 37.21 35.45c11.36 6.83 31.41 3.49 45.74 12.1 12.36 7.43 18.72 26.64 32.14 34.71 12.89 7.75 32.83 4.34 45.74 12.1 13.4 8.05 19.77 27.27 32.16 34.71.42.25.84.5 1.28.73a49.43 49.43 0 0 1 15.92 13.15 16.21 16.21 0 0 0 12.87 6.35h0a16.25 16.25 0 0 0 16.25-16.25v-9.7a28.14 28.14 0 0 0-13.61-24.08C440.16 135.54 323.19 65.08 260.45 27.41z" />
    <path fill="#AED6F1" d="M239.19 60.2c-22 5.73-14.44 23.75-33.93 35.47s-26.3.4-45.79 12.12-12.7 23-32.2 34.74-26.29.4-45.79 12.11-12.7 23-32.19 34.74c-.77.46-1.53.88-2.27 1.27A53.51 53.51 0 0 0 30.9 203.78a16.29 16.29 0 0 1-4.81 3.83 15.62 15.62 0 0 0 7.38 1.89 16.17 16.17 0 0 0 12.43-5.72A53.51 53.51 0 0 1 62 190.65c.74-.39 1.5-.81 2.27-1.27 19.49-11.71 12.7-23 32.19-34.74s26.29-.4 45.79-12.11 12.7-23 32.2-34.74 26.29-.41 45.79-12.12c18.43-11.07 12.68-27.78 30.59-34.42C248.18 59.37 244.61 58.79 239.19 60.2zM479.89 159.47c-39.73-23.93-156.7-94.39-219.44-132.06a10.77 10.77 0 0 0-9.18 0l-2.91 1.74C311.74 67.22 425.77 135.9 464.89 159.47a28.14 28.14 0 0 1 13.61 24.08v9.7a16.25 16.25 0 0 1-8.75 14.41 16.15 16.15 0 0 0 7.5 1.84h0a16.25 16.25 0 0 0 16.25-16.25v-9.7A28.14 28.14 0 0 0 479.89 159.47z" />
    <path fill="#004a79" d="M255.88,169a35,35,0,1,0,35,35A35,35,0,0,0,255.88,169Zm0,55a20,20,0,1,1,20-20A20,20,0,0,1,255.88,224Zm235.21,226a56.36,56.36,0,0,0-40.21-12.22V242l10.28,6.68a17.5,17.5,0,0,0,27-14.66v-19.7A23.77,23.77,0,0,0,501,193.25v-9.7A35.82,35.82,0,0,0,483.76,153L438,125.5V69.94a23.57,23.57,0,0,0,6.37-16.33l-.27-35.41A18.39,18.39,0,0,0,425.78,0H362.7a18.34,18.34,0,0,0-18.34,18.5l.25,28.31a20,20,0,0,0,5.28,13.32l-.09,12.25c-31.51-19-62.32-37.49-85.49-51.41-.21-.12-.43-.24-.66-.35a18.24,18.24,0,0,0-15.58,0c-.22.11-.44.22-.65.35l-80.6,48.32a7.5,7.5,0,1,0,7.71,12.86l80.19-48.07a3.28,3.28,0,0,1,2.29,0c63.49,38.13,183.63,110.5,219,131.81a20.74,20.74,0,0,1,10,17.66v9.7a8.73,8.73,0,0,1-15.66,5.33A57,57,0,0,0,452,183.4l-1-.56c-4.74-2.85-8.84-8.59-13.18-14.67-5.31-7.44-10.81-15.14-19-20-7.79-4.68-16.93-5.89-25.76-7.05-7.65-1-14.87-2-20-5-5.51-3.32-9.89-9.45-14.53-15.94-5-7-10.22-14.33-17.61-18.77-8.91-5.36-19.21-6.72-28.29-7.92-6.91-.91-13.44-1.77-17.45-4.18-8.7-5.23-12-12.57-15.23-19.68-4.06-9-9.63-21.31-27.73-16.6-15.26,4-19.88,13.49-23.58,21.14C225.88,80,223.42,85,216.39,89.24c-8,4.81-12.93,4.89-19.15,5-7.1.11-15.16.23-26.64,7.13s-15.37,14-18.8,20.17c-3,5.45-5.38,9.75-13.39,14.56s-12.93,4.9-19.15,5c-7.11.11-15.16.23-26.64,7.13s-15.37,13.95-18.8,20.18c-3,5.44-5.38,9.74-13.39,14.55-.63.38-1.25.73-1.85,1a60.91,60.91,0,0,0-18.4,14.94A8.69,8.69,0,0,1,33.53,202h0a9,9,0,0,1-8.71-9.23v-9.18a20.71,20.71,0,0,1,10-17.68L146,99.28a7.5,7.5,0,1,0-7.72-12.86L27.1,153A35.8,35.8,0,0,0,9.79,183.59v9.18a24.3,24.3,0,0,0,13.77,22v16.92A17.51,17.51,0,0,0,50.49,246.4l10.39-6.65V264.7C57,266.84,52.72,271,49.2,279L2.89,383.57c-2.57,5.8-1.14,14.32,5,17.26a146.49,146.49,0,0,0,36.54,12v26.43a56.6,56.6,0,0,0-24.52,12A55.73,55.73,0,0,0,0,494v.46A17.52,17.52,0,0,0,17.5,512h477A17.52,17.52,0,0,0,512,494.5v-1A55.62,55.62,0,0,0,491.09,449.92ZM423,116.46l-58.29-35.1.11-14.66a20.1,20.1,0,0,0,19.93-20.07V44.36a6.11,6.11,0,0,1,12.21,0v9.43a23.73,23.73,0,0,0,23.7,23.7c.79,0,1.57,0,2.34-.11Zm3.84-56.54A8.7,8.7,0,0,1,412,53.79V44.36a21.11,21.11,0,0,0-42.21,0v2.27a5.08,5.08,0,0,1-10.16,0l-.26-28.3A3.35,3.35,0,0,1,362.7,15h63.08a3.34,3.34,0,0,1,3.34,3.31l.27,35.41A8.67,8.67,0,0,1,426.86,59.92ZM42.41,233.76a2.41,2.41,0,0,1-2.55.08,2.39,2.39,0,0,1-1.3-2.18v-15.2a23.67,23.67,0,0,0,13-7.83,46.26,46.26,0,0,1,13.84-11.32c.89-.45,1.79-1,2.7-1.5,11.48-6.9,15.37-14,18.8-20.18,3-5.44,5.38-9.74,13.39-14.56s12.93-4.89,19.15-5c7.11-.11,15.16-.23,26.64-7.13s15.37-13.95,18.8-20.17c3-5.45,5.38-9.75,13.4-14.57s12.93-4.89,19.14-5c7.11-.11,15.17-.23,26.65-7.13C235,95.57,239,87.28,242.22,80.62c3.3-6.82,5.3-10.94,13.86-13.17,5.45-1.41,6-1.29,10.29,8.27,3.56,7.9,8.45,18.71,21.16,26.35,6.69,4,15.09,5.13,23.22,6.2s16.28,2.15,22.52,5.9c4.72,2.84,8.81,8.57,13.14,14.63,5.32,7.46,10.82,15.17,19,20.09,7.79,4.67,16.91,5.88,25.74,7.05,7.66,1,14.89,2,20,5,5.49,3.31,9.87,9.43,14.5,15.91,5,7.06,10.24,14.35,17.65,18.8.52.31,1,.61,1.58.9a42,42,0,0,1,13.54,11.13,23.54,23.54,0,0,0,14.77,8.93V234a2.5,2.5,0,0,1-3.86,2.09L264.28,102.75a8.6,8.6,0,0,0-.84-.47,17.42,17.42,0,0,0-15.1,0,8,8,0,0,0-.81.46ZM319.64,410.4a7.5,7.5,0,0,0,7.5-7.5V319a37.54,37.54,0,0,0-37.5-37.5H222.13a37.54,37.54,0,0,0-37.5,37.5V426.18c-7.79-3-17.06-5.13-29.64-4.91-18.78.33-30.78,5.65-41.37,10.34-6.72,3-12.83,5.68-20.32,7.2v-26a146.66,146.66,0,0,0,36.53-12c6.17-2.95,7.61-11.46,5-17.27L88.56,279c-3.83-8.64-8.53-12.83-12.68-14.79v-34l179.2-114.5a2.45,2.45,0,0,1,1.56,0L435.88,232.23v208a108.36,108.36,0,0,1-11.44,1.15c-17.67.79-28.29-3.05-40.6-7.48s-26.27-9.47-48.34-9.47h-.42c-25.75.07-40.47,6.84-53.45,12.81C269,443,258.07,448,237.89,446.37c-17.91-1.47-27.53-6.83-37.72-12.5l-.54-.31V319a22.52,22.52,0,0,1,22.5-22.5h67.51a22.53,22.53,0,0,1,22.5,22.5V402.9A7.5,7.5,0,0,0,319.64,410.4ZM17.09,388.55l45.83-103.5c2.5-5.65,5.1-7.48,6-7.48s3.46,1.83,6,7.48l45.82,103.5a125.18,125.18,0,0,1-51,11.56,118.23,118.23,0,0,1-16.26-1c-.24-.05-.5-.08-.75-.11A128.54,128.54,0,0,1,17.09,388.55ZM78.3,414.76v25.29a79.4,79.4,0,0,1-11.87-1.17,61.16,61.16,0,0,0-7-.78V414.76c3.14.22,6.28.35,9.42.35h.85Q74,415.08,78.3,414.76ZM497,494.5a2.5,2.5,0,0,1-2.5,2.5H17.5a2.5,2.5,0,0,1-2.5-2.5V494a40.76,40.76,0,0,1,14.58-31.3A41.7,41.7,0,0,1,56.41,453a42.24,42.24,0,0,1,7.41.65,92.21,92.21,0,0,0,17.41,1.42c1.75,0,3.42-.11,5-.23l.34,0c14-1.06,23.67-5.34,33.07-9.5,10.2-4.52,19.82-8.78,35.57-9.07,17.83-.33,27,4.79,37.61,10.71s22.64,12.61,43.79,14.35c24.1,2,37.89-4.35,51.23-10.48,12.16-5.59,24.74-11.38,47.23-11.44h.39c19.44,0,31,4.17,43.25,8.58,12.64,4.56,25.72,9.28,46.35,8.35a123.6,123.6,0,0,0,21.38-2.84,41.59,41.59,0,0,1,35.22,8.13A40.72,40.72,0,0,1,497,493.52Z" />
</svg>